<svg width="48" height="44" viewBox="0 0 48 44" fill="none" xmlns="http://www.w3.org/2000/svg">
<path d="M14.6419 1.84958L10.067 10.586C9.77156 11.1501 9.96609 11.8554 10.5045 12.1725L17.668 16.3921C18.2138 16.7136 18.9078 16.5159 19.2182 15.9504L27.9743 0.000610352H17.64C16.3891 0.000610352 15.2385 0.710139 14.6419 1.84958Z" fill="#29A361"/>
<path d="M27.9741 0L19.2183 15.95C18.9073 16.5154 18.2138 16.7136 17.6682 16.3923L15.7985 15.2913C16.2543 15.3674 16.7286 15.1503 16.97 14.7099L25.0469 0H27.9741Z" fill="#248F55"/>
<path d="M37.5548 8.45919L34.3994 1.94897C33.8205 0.754539 32.6409 0.000610352 31.3512 0.000610352H22.2279L29.2327 12.3166C29.2098 12.3273 29.1867 12.3379 29.1637 12.3486C28.7231 12.5542 28.7411 13.2092 29.1922 13.3888L35.2409 15.796C35.5212 15.9075 35.8356 15.7625 35.9433 15.4721L38.275 9.1795C38.4474 8.71403 37.9947 8.26488 37.5548 8.45919Z" fill="#34CB79"/>
<path d="M38.2751 9.17899L35.9427 15.4715C35.8356 15.7627 35.5206 15.9079 35.2406 15.7958L33.4104 15.0671L35.5922 9.17899C35.7162 8.84506 35.5181 8.51988 35.2339 8.43458C34.9632 8.35326 34.7321 8.16954 34.6056 7.90858L31.7165 1.94875C31.1379 0.754706 29.9587 0 28.6685 0H31.3514C32.6407 0 33.8199 0.754706 34.3994 1.94875L37.5546 8.45945C37.9951 8.26524 38.4471 8.71361 38.2751 9.17899Z" fill="#2FB86E"/>
<path d="M31.4594 33.5592C31.3744 33.1978 30.9244 33.043 30.6498 33.3275L25.9222 38.2268C25.7336 38.4223 25.7336 38.7391 25.9222 38.9345L30.668 43.8526C30.9408 44.1352 31.3862 43.9844 31.4758 43.6291H38.4548C39.7397 43.6291 40.9156 42.8809 41.4969 41.6934L45.4791 33.5591H31.4594V33.5592Z" fill="#29A361"/>
<path d="M37.3509 33.5593L39.6138 37.1078C40.1254 37.9101 40.1821 38.9352 39.7622 39.7927L38.8314 41.6935C38.251 42.8805 37.0746 43.6292 35.7902 43.6292H38.4548C39.7393 43.6292 40.9157 42.8805 41.4971 41.6935L45.479 33.5594H37.3509V33.5593Z" fill="#248F55"/>
<path d="M21.9353 42.6939V34.0356C21.9353 33.3848 21.4262 32.8572 20.7982 32.8572H2.06775L6.888 42.0281C7.48547 43.1648 8.63456 43.8722 9.88359 43.8722H20.7982C21.4261 43.8723 21.9353 43.3448 21.9353 42.6939Z" fill="#29A361"/>
<path d="M10.0114 32.8579L5.85169 40.0572L2.06775 32.8579H10.0114Z" fill="#248F55"/>
<path d="M21.9351 34.0357V42.6943C21.9351 43.3448 21.4261 43.8723 20.7984 43.8723H17.8151C18.4428 43.8723 18.9518 43.3448 18.9518 42.6943V34.0357C18.9518 33.3851 18.4428 32.8577 17.8151 32.8577H20.7984C21.4261 32.8576 21.9351 33.3851 21.9351 34.0357Z" fill="#248F55"/>
<path d="M12.7847 25.2066L11.9436 18.6467C11.902 18.3226 11.6148 18.0949 11.3021 18.1379L4.94784 19.0129C4.46934 19.0788 4.29102 19.682 4.61877 20.0176L0.608522 26.0077C-0.126759 27.106 -0.201384 28.54 0.415585 29.7138L4.77955 38.0167L11.8654 25.7507C11.8679 25.7526 11.8703 25.7546 11.8729 25.7566C12.2773 26.0747 12.8515 25.7282 12.7847 25.2066Z" fill="#34CB79"/>
<path d="M11.8725 25.7566C11.8705 25.7546 11.8677 25.7526 11.8657 25.7506L4.77961 38.0163L3.32227 35.2439L9.08977 25.2586L9.2497 24.9816C9.33717 24.8302 9.50808 24.7648 9.67523 24.7984C9.67608 24.7986 9.67692 24.7987 9.67777 24.7989C10.0334 24.8646 10.3981 24.5576 10.3435 24.1362L9.60464 18.3712L11.3015 18.138C11.6145 18.095 11.9023 18.3232 11.9438 18.6464L12.785 25.2072C12.8518 25.7285 12.2771 26.0748 11.8725 25.7566Z" fill="#2FB86E"/>
<path d="M47.396 25.557L41.9104 17.3197C41.574 16.8144 40.9194 16.6616 40.4063 16.9684L33.2575 21.2435C32.6901 21.5828 32.516 22.3475 32.8773 22.9139L42.955 38.7152L47.6307 29.1644C48.1966 28.0083 48.1066 26.6239 47.396 25.557Z" fill="#34CB79"/>
<path d="M47.6308 29.1645L42.9545 38.7149L41.386 36.2547L44.8571 29.1644C45.4231 28.0084 45.3333 26.6242 44.6225 25.5572L39.3309 17.6123L40.4068 16.9688C40.9196 16.6615 41.5745 16.8146 41.9106 17.3201L47.3963 25.5573C48.107 26.6243 48.1968 28.0086 47.6308 29.1645Z" fill="#2FB86E"/>
</svg>
